<?xml version="1.0" encoding="UTF-8"?><svg id="_レイヤー_2" xmlns="http://www.w3.org/2000/svg" viewBox="0 0 105.97 71.5"><defs><style>.cls-1{fill:#231815;}</style></defs><g id="_レイヤー_1-2"><path class="cls-1" d="M105.97,8.48v54.54c0,1.05-.2,2.05-.55,2.98l-34.05-29.76L105.93,7.79c.02.23.04.46.04.69ZM97.49,0c1.58,0,3.06.44,4.33,1.2l-42.5,34.98c-4.22,2.95-9.76.53-10.93-.03L4.41,1.05c1.21-.67,2.6-1.05,4.07-1.05h89ZM1.27,67.46c-.8-1.29-1.27-2.81-1.27-4.44V8.48c0-.35.03-.7.07-1.04l36.52,29.14L1.27,67.46ZM8.48,71.5s-.09,0-.13,0l34.36-30.03,1.18.95.52.35c.28.16,4.69,2.58,10.12,2.58,2.99,0,6.29-.73,9.39-2.97l1.43-1.17,34.33,30.01c-.7.19-1.43.3-2.19.3H8.48Z"/></g></svg>