<?xml version="1.0" encoding="UTF-8"?><svg id="_レイヤー_2" xmlns="http://www.w3.org/2000/svg" viewBox="0 0 200 15.99"><g id="_レイヤー_2-2"><g id="_レイヤー_1-2"><path d="M3.64,14.95c-1.16-.7-2.06-1.64-2.69-2.84-.63-1.19-.95-2.49-.95-3.9,0-1.65.42-3.06,1.25-4.24.83-1.17,1.9-2.06,3.21-2.65,1.3-.59,2.64-.89,4-.89,1.52,0,2.86.36,4.01,1.07,1.15.71,2.04,1.65,2.65,2.82.62,1.17.93,2.41.93,3.72,0,1.46-.38,2.79-1.15,4.01s-1.8,2.18-3.09,2.88c-1.29.7-2.69,1.05-4.19,1.05s-2.81-.35-3.97-1.05h0ZM11.4,14.7c.87-.53,1.56-1.3,2.07-2.33.5-1.03.76-2.24.76-3.65,0-1.5-.28-2.84-.84-4.01-.56-1.17-1.35-2.08-2.37-2.74s-2.21-.99-3.57-.99c-1.76,0-3.14.57-4.13,1.71-.99,1.14-1.49,2.7-1.49,4.69,0,1.5.28,2.88.84,4.12.56,1.24,1.35,2.22,2.35,2.93s2.16,1.07,3.44,1.07c1.09,0,2.07-.26,2.94-.79h0ZM32.34,15.56c0,.1-.02.14-.07.14h-2.69c-.13,0-.36,0-.68.01-.33,0-.79-.4-1.38-1.23-.59-.82-1.16-1.58-1.71-2.27l-3.68-4.63-.79.77v5.4c0,.48.05.84.14,1.07.1.23.28.39.56.47s.73.12,1.33.12c.05,0,.07.05.07.14s-.02.14-.07.14c-.48,0-.86,0-1.15-.02l-1.68-.02-1.63.02c-.29.01-.69.02-1.2.02-.03,0-.05-.05-.05-.14s.01-.14.05-.14c.61,0,1.05-.04,1.33-.12.28-.08.47-.24.58-.47s.16-.59.16-1.07V2.64c0-.48-.05-.83-.14-1.05-.1-.22-.29-.38-.56-.47-.28-.09-.73-.13-1.33-.13-.03,0-.05-.05-.05-.14s.01-.14.05-.14l1.2.02c.67.03,1.21.05,1.61.05.46,0,1.03-.01,1.71-.05l1.13-.02s.07.05.07.14-.02.14-.07.14c-.59,0-1.03.05-1.31.14-.28.1-.47.26-.58.49s-.16.59-.16,1.07v5.07l5.14-5.12c.53-.53.79-.92.79-1.17,0-.32-.47-.48-1.42-.48-.03,0-.05-.05-.05-.14s.01-.14.05-.14l1.03.02c.64.03,1.23.05,1.75.05s1.08-.01,1.66-.05l.89-.02s.07.05.07.14-.02.14-.07.14c-.66,0-1.36.14-2.09.43s-1.42.74-2.07,1.37l-3.8,3.72,3.46,4.42c1.17,1.52,2.06,2.59,2.68,3.22.62.62,1.09.99,1.43,1.11.34.11.82.17,1.47.17.05,0,.07.05.07.14h.01ZM49.76,15.56c0,.1-.03.14-.1.14-.31,0-.78-.01-1.42-.05-.64-.03-1.11-.05-1.39-.05-.35,0-.8.01-1.35.05-.51.03-.91.05-1.17.05-.06,0-.1-.05-.1-.14s.03-.14.1-.14c.59,0,1.03-.06,1.3-.17.27-.11.41-.31.41-.58,0-.22-.11-.57-.31-1.03l-2.14-4.54h-5.72l-1.51,3.56c-.23.55-.34.99-.34,1.32,0,.49.19.86.59,1.09s.98.35,1.77.35c.08,0,.12.05.12.14s-.04.14-.12.14c-.29,0-.7-.01-1.25-.05-.61-.03-1.14-.05-1.59-.05-.42,0-.9.01-1.44.05-.48.03-.88.05-1.2.05-.08,0-.12-.05-.12-.14s.04-.14.12-.14c.45,0,.83-.08,1.14-.25.31-.17.61-.46.89-.89.28-.43.59-1.04.93-1.84L40.92.48s.09-.07.17-.07.13.02.14.07l5.67,11.94c.55,1.18,1.01,1.98,1.39,2.39.38.41.84.61,1.37.61.06,0,.1.05.1.14ZM38.06,8.62h5.31l-2.81-5.93-2.5,5.93ZM69.25,15.56c0,.1-.02.14-.07.14-.49,0-.89,0-1.17-.02l-1.66-.02-1.54.02c-.25.01-.62.02-1.08.02-.03,0-.05-.05-.05-.14s.01-.14.05-.14c.55,0,.95-.05,1.21-.13.26-.09.44-.25.53-.47s.12-.58.08-1.06l-.43-10.93-5.48,12.71c-.03.06-.1.1-.19.1-.08,0-.15-.03-.22-.1l-5.91-12.56-.22,10.11c-.01.85.13,1.45.43,1.8s.84.53,1.61.53c.03,0,.05.05.05.14s-.01.14-.05.14c-.45,0-.79,0-1.03-.02l-1.3-.02-1.25.02c-.23.01-.55.02-.96.02-.03,0-.05-.05-.05-.14s.01-.14.05-.14c.67,0,1.16-.18,1.45-.54.3-.36.45-.96.47-1.79l.22-11.15c-.48-.64-1.14-.96-1.97-.96-.03,0-.05-.05-.05-.14s.01-.14.05-.14l.89.02c.16.02.38.02.67.02s.53,0,.73-.02.36-.02.47-.02c.21,0,.38.07.52.23.13.15.33.49.59,1.02l5.36,11.29,5.24-11.94c.18-.4.42-.6.72-.6.08,0,.19,0,.35.02.15.02.36.02.61.02l1.13-.02c.18-.01.44-.02.79-.02.05,0,.07.05.07.14s-.02.14-.07.14c-.8,0-1.37.12-1.72.35s-.51.67-.49,1.31l.48,11.12c.01.49.07.86.18,1.08.11.23.29.37.56.46.27.08.71.12,1.32.12.05,0,.07.05.07.14h0ZM74.03,14.95c-1.16-.7-2.06-1.64-2.69-2.84-.63-1.19-.95-2.49-.95-3.9,0-1.65.42-3.06,1.25-4.24.83-1.17,1.9-2.06,3.21-2.65,1.3-.59,2.64-.89,4-.89,1.52,0,2.86.36,4.01,1.07,1.15.71,2.04,1.65,2.65,2.82s.93,2.41.93,3.72c0,1.46-.38,2.79-1.15,4.01s-1.8,2.18-3.09,2.88c-1.29.7-2.69,1.05-4.19,1.05s-2.81-.35-3.97-1.05h0ZM81.79,14.7c.87-.53,1.56-1.3,2.07-2.33s.76-2.24.76-3.65c0-1.5-.28-2.84-.84-4.01-.56-1.17-1.35-2.08-2.37-2.74s-2.21-.99-3.57-.99c-1.76,0-3.14.57-4.13,1.71-.99,1.14-1.49,2.7-1.49,4.69,0,1.5.28,2.88.84,4.12.56,1.24,1.35,2.22,2.35,2.93s2.16,1.07,3.44,1.07c1.09,0,2.07-.26,2.94-.79h0ZM89.53,1.9c-.5.51-.87,1.39-1.09,2.62,0,.03-.05.05-.13.05s-.13-.01-.13-.05c.06-.58.13-1.33.22-2.26.08-.93.12-1.62.12-2.09,0-.08.05-.12.13-.12s.13.04.13.12c0,.35.43.53,1.3.53,1.36.05,2.97.07,4.83.07.94,0,1.95-.01,3-.05l1.63-.02c.58,0,1-.04,1.29-.12s.46-.24.54-.48c.01-.06.06-.1.14-.1s.12.03.12.1c-.05.46-.1,1.17-.14,2.11-.05.94-.07,1.72-.07,2.31,0,.03-.05.05-.14.05s-.14-.01-.14-.05c-.05-1.25-.31-2.13-.77-2.63s-1.23-.76-2.31-.76c-.72,0-1.23.03-1.54.1-.31.06-.51.2-.62.41s-.17.56-.17,1.06v11.07c0,.49.06.86.17,1.08.11.23.33.37.65.46.32.08.82.12,1.51.12.05,0,.07.05.07.14s-.02.14-.07.14c-.53,0-.95,0-1.27-.02l-1.87-.02-1.8.02c-.32.01-.76.02-1.32.02-.03,0-.05-.05-.05-.14s.01-.14.05-.14c.69,0,1.19-.04,1.51-.12s.54-.24.66-.47.18-.59.18-1.07V2.64c0-.49-.06-.85-.17-1.05s-.32-.33-.62-.38-.82-.08-1.54-.08c-1.01,0-1.77.25-2.27.77h0ZM106.58,14.95c-1.16-.7-2.06-1.64-2.69-2.84-.63-1.19-.95-2.49-.95-3.9,0-1.65.42-3.06,1.25-4.24.83-1.17,1.9-2.06,3.21-2.65,1.3-.59,2.64-.89,4-.89,1.52,0,2.86.36,4.01,1.07,1.15.71,2.04,1.65,2.65,2.82s.93,2.41.93,3.72c0,1.46-.38,2.79-1.15,4.01-.77,1.22-1.8,2.18-3.09,2.88-1.29.7-2.69,1.05-4.19,1.05s-2.81-.35-3.97-1.05h0ZM114.34,14.7c.87-.53,1.56-1.3,2.07-2.33s.76-2.24.76-3.65c0-1.5-.28-2.84-.84-4.01-.56-1.17-1.35-2.08-2.37-2.74s-2.21-.99-3.57-.99c-1.76,0-3.14.57-4.13,1.71-.99,1.14-1.49,2.7-1.49,4.69,0,1.5.28,2.88.84,4.12.56,1.24,1.35,2.22,2.35,2.93s2.16,1.07,3.44,1.07c1.09,0,2.07-.26,2.94-.79h0ZM146.17,15.56c0,.1-.02.14-.07.14-.49,0-.89,0-1.17-.02l-1.66-.02-1.54.02c-.25.01-.62.02-1.08.02-.03,0-.05-.05-.05-.14s.01-.14.05-.14c.55,0,.95-.05,1.21-.13.26-.09.44-.25.53-.47s.12-.58.08-1.06l-.43-10.93-5.48,12.71c-.03.06-.1.1-.19.1-.08,0-.15-.03-.22-.1l-5.91-12.56-.22,10.11c-.01.85.13,1.45.43,1.8s.84.53,1.61.53c.03,0,.05.05.05.14s-.01.14-.05.14c-.45,0-.79,0-1.03-.02l-1.3-.02-1.25.02c-.23.01-.55.02-.96.02-.03,0-.05-.05-.05-.14s.01-.14.05-.14c.67,0,1.16-.18,1.45-.54.3-.36.45-.96.47-1.79l.22-11.15c-.48-.64-1.14-.96-1.97-.96-.03,0-.05-.05-.05-.14s.01-.14.05-.14l.89.02c.16.02.38.02.67.02s.53,0,.73-.02.36-.02.47-.02c.21,0,.38.07.52.23.13.15.33.49.59,1.02l5.36,11.29,5.24-11.94c.18-.4.42-.6.72-.6.08,0,.19,0,.35.02.15.02.36.02.61.02l1.13-.02c.18-.01.44-.02.79-.02.05,0,.07.05.07.14s-.02.14-.07.14c-.8,0-1.37.12-1.72.35s-.51.67-.49,1.31l.48,11.12c.01.49.07.86.18,1.08.11.23.29.37.56.46.27.08.71.12,1.32.12.05,0,.07.05.07.14h0ZM152.14,14.83c.1.23.28.39.56.47.28.08.73.12,1.33.12.05,0,.07.05.07.14s-.02.14-.07.14c-.48,0-.86,0-1.15-.02l-1.71-.02-1.66.02c-.29.01-.68.02-1.17.02-.05,0-.07-.05-.07-.14s.02-.14.07-.14c.61,0,1.05-.04,1.33-.12.28-.08.47-.24.58-.47.1-.23.16-.59.16-1.07V2.64c0-.48-.05-.83-.16-1.05s-.3-.38-.58-.47-.73-.13-1.33-.13c-.05,0-.07-.05-.07-.14s.02-.14.07-.14l1.17.02c.67.03,1.23.05,1.66.05.48,0,1.06-.01,1.73-.05l1.13-.02s.07.05.07.14-.02.14-.07.14c-.59,0-1.03.05-1.31.14s-.47.26-.58.49-.16.59-.16,1.07v11.07c0,.48.05.84.14,1.07h0ZM171.02,15.56c0,.1-.02.14-.07.14h-2.69c-.13,0-.36,0-.68.01-.33,0-.79-.4-1.38-1.23-.59-.82-1.16-1.58-1.71-2.27l-3.68-4.63-.79.77v5.4c0,.48.05.84.14,1.07s.28.39.56.47c.28.08.73.12,1.33.12.05,0,.07.05.07.14s-.02.14-.07.14c-.48,0-.86,0-1.15-.02l-1.68-.02-1.63.02c-.29.01-.69.02-1.2.02-.03,0-.05-.05-.05-.14s.01-.14.05-.14c.61,0,1.05-.04,1.33-.12.28-.08.47-.24.58-.47s.16-.59.16-1.07V2.64c0-.48-.05-.83-.14-1.05s-.29-.38-.56-.47c-.28-.09-.73-.13-1.33-.13-.03,0-.05-.05-.05-.14s.01-.14.05-.14l1.2.02c.67.03,1.21.05,1.61.05.46,0,1.03-.01,1.71-.05l1.13-.02s.07.05.07.14-.02.14-.07.14c-.59,0-1.03.05-1.31.14-.28.1-.47.26-.58.49s-.16.59-.16,1.07v5.07l5.14-5.12c.53-.53.79-.92.79-1.17,0-.32-.47-.48-1.42-.48-.03,0-.05-.05-.05-.14s.01-.14.05-.14l1.03.02c.64.03,1.23.05,1.75.05s1.08-.01,1.66-.05l.89-.02s.07.05.07.14-.02.14-.07.14c-.66,0-1.36.14-2.09.43s-1.42.74-2.07,1.37l-3.8,3.72,3.46,4.42c1.17,1.52,2.06,2.59,2.68,3.22.62.62,1.09.99,1.43,1.11.34.11.82.17,1.47.17.05,0,.07.05.07.14h.01ZM188.44,15.56c0,.1-.03.14-.1.14-.31,0-.78-.01-1.42-.05-.64-.03-1.11-.05-1.39-.05-.35,0-.8.01-1.35.05-.51.03-.91.05-1.17.05-.06,0-.1-.05-.1-.14s.03-.14.1-.14c.59,0,1.03-.06,1.3-.17.27-.11.41-.31.41-.58,0-.22-.11-.57-.31-1.03l-2.14-4.54h-5.72l-1.51,3.56c-.23.55-.34.99-.34,1.32,0,.49.19.86.59,1.09.39.23.98.35,1.77.35.08,0,.12.05.12.14s-.04.14-.12.14c-.29,0-.7-.01-1.25-.05-.61-.03-1.14-.05-1.59-.05-.42,0-.9.01-1.44.05-.48.03-.88.05-1.2.05-.08,0-.12-.05-.12-.14s.04-.14.12-.14c.45,0,.83-.08,1.14-.25.31-.17.61-.46.89-.89.28-.43.59-1.04.93-1.84l5.07-11.96s.09-.07.17-.07.13.02.14.07l5.67,11.94c.55,1.18,1.01,1.98,1.39,2.39.38.41.84.61,1.37.61.06,0,.1.05.1.14h0ZM176.74,8.62h5.31l-2.81-5.93-2.5,5.93h0ZM199.81,12.08s.09,0,.13.02c.04.02.06.04.06.07-.14,1.01-.22,2.07-.22,3.17,0,.13-.03.22-.08.28s-.16.08-.3.08h-10.06s-.05-.05-.05-.14.01-.14.05-.14c.61,0,1.05-.04,1.33-.12s.47-.24.58-.47c.1-.23.16-.59.16-1.07V2.64c0-.48-.05-.83-.16-1.05s-.3-.38-.58-.47-.73-.13-1.33-.13c-.03,0-.05-.05-.05-.14s.01-.14.05-.14h9.66c.14,0,.22.07.22.22l.05,2.96s-.04.08-.12.08c-.08,0-.13-.01-.14-.06-.05-.85-.31-1.51-.77-1.98s-1.08-.71-1.85-.71h-1.47c-.56,0-.97.05-1.23.13s-.45.24-.55.46c-.11.22-.16.54-.16.97v4.88h2.93c.77,0,1.32-.13,1.65-.38.33-.25.49-.69.49-1.3,0-.03.05-.05.14-.05s.14.02.14.05l-.02,1.95c0,.46,0,.82.02,1.06l.02,1.15s-.05.05-.14.05-.14-.01-.14-.05c0-.7-.17-1.21-.52-1.51-.34-.31-.92-.46-1.72-.46h-2.86v5.52c0,.45.05.78.14.99s.27.35.53.43c.25.08.66.12,1.2.12h1.92c.77,0,1.41-.27,1.92-.82.51-.55.86-1.3,1.03-2.26,0-.03.03-.05.1-.05h0Z"/></g></g></svg>